<svg width="1920" height="240" viewBox="0 0 1920 240" xmlns="http://www.w3.org/2000/svg"><rect width="1920" height="240" fill="#4fc9f7"/><path d="M 0,240 C 0,240 0,60 0,60 C 95.3993004418262,57.16145066273933 190.7986008836524,54.32290132547865 271,52 C 351.2013991163476,49.67709867452135 416.2048969072165,47.86984536082473 500,51 C 583.7951030927835,54.13015463917527 686.3818114874816,62.197717231222384 751,64 C 815.6181885125184,65.80228276877762 842.2678571428571,61.33928571428572 918,64 C 993.7321428571429,66.66071428571428 1118.54675994109,76.44513991163475 1219,79 C 1319.45324005891,81.55486008836525 1395.5451030927834,76.88015463917525 1478,70 C 1560.4548969072166,63.119845360824755 1649.2728276877763,54.03424153166422 1724,52 C 1798.7271723122237,49.96575846833578 1859.363586156112,54.98287923416789 1920,60 C 1920,60 1920,240 1920,240 Z" fill="#021562" opacity="0.15"/><path d="M 0,240 C 0,240 0,120 0,120 C 85.06848306332842,124.22533136966126 170.13696612665683,128.45066273932252 256,123 C 341.86303387334317,117.54933726067746 428.52061855670104,102.42268041237112 512,103 C 595.479381443299,103.57731958762888 675.780559646539,119.85861561119293 747,125 C 818.219440353461,130.14138438880707 880.3571428571428,124.14285714285715 951,121 C 1021.6428571428572,117.85714285714285 1100.7908689248898,117.5699558173785 1187,118 C 1273.2091310751102,118.4300441826215 1366.479381443299,119.57731958762886 1443,125 C 1519.520618556701,130.42268041237114 1579.2916053019146,140.12076583210606 1656,140 C 1732.7083946980854,139.87923416789394 1826.3541973490428,129.93961708394698 1920,120 C 1920,120 1920,240 1920,240 Z" fill="#021562" opacity="0.3"/><path d="M 0,240 C 0,240 0,180 0,180 C 76.89782768777613,173.1805964653903 153.79565537555226,166.36119293078056 227,163 C 300.20434462444774,159.63880706921944 369.715206185567,159.73582474226802 452,165 C 534.284793814433,170.26417525773198 629.3435198821796,180.6955081001473 719,182 C 808.6564801178204,183.3044918998527 892.9107142857144,175.48214285714283 984,177 C 1075.0892857142856,178.51785714285717 1173.013622974963,189.37592047128132 1244,191 C 1314.986377025037,192.62407952871868 1359.034793814433,185.01417525773195 1419,182 C 1478.965206185567,178.98582474226805 1554.8472017673048,180.56737849779088 1641,181 C 1727.1527982326952,181.43262150220912 1823.5763991163476,180.71631075110457 1920,180 C 1920,180 1920,240 1920,240 Z" fill="#021562" opacity="0.44999999999999996"/></svg>